<svg width="400" height="250" viewBox="0 0 400 250" fill="none" xmlns="http://www.w3.org/2000/svg">
  <defs>
    <linearGradient id="bg5" x1="0%" y1="0%" x2="100%" y2="100%">
      <stop offset="0%" style="stop-color:#ff9a9e;stop-opacity:1" />
      <stop offset="100%" style="stop-color:#fecfef;stop-opacity:1" />
    </linearGradient>
  </defs>
  <rect width="400" height="250" fill="url(#bg5)"/>
  
  <!-- Prompt input -->
  <g transform="translate(50, 80)">
    <rect x="0" y="0" width="100" height="30" rx="15" stroke="white" stroke-width="2" fill="none" opacity="0.9"/>
    <text x="50" y="20" text-anchor="middle" fill="white" font-family="Arial, sans-serif" font-size="12" font-weight="bold">PROMPT</text>
  </g>
  
  <!-- Arrow -->
  <g stroke="white" stroke-width="3" opacity="0.8">
    <line x1="170" y1="95" x2="210" y2="95"/>
    <polygon points="210,95 200,90 200,100" fill="white"/>
  </g>
  
  <!-- AI Brain -->
  <g transform="translate(230, 70)">
    <circle cx="25" cy="25" r="20" stroke="white" stroke-width="2" fill="none" opacity="0.9"/>
    <g stroke="white" stroke-width="1.5" opacity="0.7">
      <path d="M15 20 Q20 15 25 20 Q30 15 35 20"/>
      <path d="M15 25 Q20 20 25 25 Q30 20 35 25"/>
      <path d="M15 30 Q20 25 25 30 Q30 25 35 30"/>
    </g>
  </g>
  
  <!-- Arrow -->
  <g stroke="white" stroke-width="3" opacity="0.8">
    <line x1="280" y1="95" x2="320" y2="95"/>
    <polygon points="320,95 310,90 310,100" fill="white"/>
  </g>
  
  <!-- Production code -->
  <g transform="translate(330, 80)">
    <rect x="0" y="0" width="60" height="30" rx="5" fill="white" opacity="0.9"/>
    <g fill="#ff9a9e" opacity="0.8">
      <rect x="5" y="5" width="20" height="3" rx="1.5"/>
      <rect x="5" y="10" width="15" height="3" rx="1.5"/>
      <rect x="5" y="15" width="25" height="3" rx="1.5"/>
      <rect x="5" y="20" width="18" height="3" rx="1.5"/>
    </g>
  </g>
  
  <text x="200" y="200" text-anchor="middle" fill="white" font-family="Arial, sans-serif" font-size="16" font-weight="bold">Autonomous AI Development</text>
</svg>

